<svg xmlns="http://www.w3.org/2000/svg" xmlns:xlink="http://www.w3.org/1999/xlink" width="100px" height="1000px" zoomAndPan="magnify"
  viewBox="0 0 375 374.999991" preserveAspectRatio="xMidYMid meet" version="1.0">
  <defs>
    <g />
    <clipPath id="0baea329cd">
      <path d="M 7.859375 156.167969 L 118 156.167969 L 118 218.402344 L 7.859375 218.402344 Z M 7.859375 156.167969 "
        clip-rule="nonzero" />
    </clipPath>
    <clipPath id="9da7d0923e">
      <path
        d="M 59.335938 164.261719 L 77.273438 164.261719 L 77.273438 182.199219 L 59.335938 182.199219 Z M 59.335938 164.261719 "
        clip-rule="nonzero" />
    </clipPath>
    <clipPath id="511afad39a">
      <path
        d="M 68.304688 164.261719 C 63.351562 164.261719 59.335938 168.277344 59.335938 173.230469 C 59.335938 178.183594 63.351562 182.199219 68.304688 182.199219 C 73.257812 182.199219 77.273438 178.183594 77.273438 173.230469 C 77.273438 168.277344 73.257812 164.261719 68.304688 164.261719 Z M 68.304688 164.261719 "
        clip-rule="nonzero" />
    </clipPath>
    <clipPath id="d2d5441efb">
      <path
        d="M 35.0625 205.148438 L 53.003906 205.148438 L 53.003906 223.085938 L 35.0625 223.085938 Z M 35.0625 205.148438 "
        clip-rule="nonzero" />
    </clipPath>
    <clipPath id="808d0ad59a">
      <path
        d="M 44.035156 205.148438 C 39.078125 205.148438 35.0625 209.164062 35.0625 214.117188 C 35.0625 219.070312 39.078125 223.085938 44.035156 223.085938 C 48.988281 223.085938 53.003906 219.070312 53.003906 214.117188 C 53.003906 209.164062 48.988281 205.148438 44.035156 205.148438 Z M 44.035156 205.148438 "
        clip-rule="nonzero" />
    </clipPath>
    <clipPath id="b714e45e4a">
      <path
        d="M 83.605469 205.148438 L 101.546875 205.148438 L 101.546875 223.085938 L 83.605469 223.085938 Z M 83.605469 205.148438 "
        clip-rule="nonzero" />
    </clipPath>
    <clipPath id="0c98bfb2ab">
      <path
        d="M 92.578125 205.148438 C 87.625 205.148438 83.605469 209.164062 83.605469 214.117188 C 83.605469 219.070312 87.625 223.085938 92.578125 223.085938 C 97.53125 223.085938 101.546875 219.070312 101.546875 214.117188 C 101.546875 209.164062 97.53125 205.148438 92.578125 205.148438 Z M 92.578125 205.148438 "
        clip-rule="nonzero" />
    </clipPath>
  </defs>
  <g clip-path="url(#0baea329cd)">
    <path fill="#00a1ff"
      d="M 82.148438 156.167969 L 94.089844 168.097656 L 68.769531 193.46875 L 44.882812 169.613281 L 7.980469 206.472656 L 19.921875 218.402344 L 44.882812 193.46875 L 68.769531 217.328125 L 106.03125 180.027344 L 117.976562 191.957031 L 117.976562 156.167969 Z M 82.148438 156.167969 "
      fill-opacity="1" fill-rule="nonzero" />
  </g>
  <g clip-path="url(#9da7d0923e)">
    <g clip-path="url(#511afad39a)">
      <path fill="#ffbd59"
        d="M 59.335938 164.261719 L 77.273438 164.261719 L 77.273438 182.199219 L 59.335938 182.199219 Z M 59.335938 164.261719 "
        fill-opacity="1" fill-rule="nonzero" />
    </g>
  </g>
  <g clip-path="url(#d2d5441efb)">
    <g clip-path="url(#808d0ad59a)">
      <path fill="#7ed957"
        d="M 35.0625 205.148438 L 53.003906 205.148438 L 53.003906 223.085938 L 35.0625 223.085938 Z M 35.0625 205.148438 "
        fill-opacity="1" fill-rule="nonzero" />
    </g>
  </g>
  <g clip-path="url(#b714e45e4a)">
    <g clip-path="url(#0c98bfb2ab)">
      <path fill="#ff5757"
        d="M 83.605469 205.148438 L 101.546875 205.148438 L 101.546875 223.085938 L 83.605469 223.085938 Z M 83.605469 205.148438 "
        fill-opacity="1" fill-rule="nonzero" />
    </g>
  </g>
  <g fill="#545454" fill-opacity="1">
    <g transform="translate(123.979216, 193.616156)">
      <g>
        <path
          d="M 1.34375 -28.40625 L 1.34375 -34.859375 L 28.84375 -34.859375 L 28.84375 -28.40625 L 19.3125 -28.40625 L 19.3125 0 L 10.828125 0 L 10.828125 -28.40625 Z M 1.34375 -28.40625 " />
      </g>
    </g>
  </g>
  <g fill="#545454" fill-opacity="1">
    <g transform="translate(153.08018, 193.616156)">
      <g>
        <path
          d="M 20.59375 -8.78125 C 21.820312 -9.976562 22.4375 -11.664062 22.4375 -13.84375 C 22.4375 -16.03125 21.820312 -17.710938 20.59375 -18.890625 C 19.375 -20.066406 17.96875 -20.65625 16.375 -20.65625 C 14.789062 -20.65625 13.382812 -20.054688 12.15625 -18.859375 C 10.9375 -17.671875 10.328125 -15.984375 10.328125 -13.796875 C 10.328125 -11.617188 10.9375 -9.941406 12.15625 -8.765625 C 13.382812 -7.585938 14.789062 -7 16.375 -7 C 17.96875 -7 19.375 -7.59375 20.59375 -8.78125 Z M 5.359375 -3.625 C 2.910156 -6.269531 1.6875 -9.660156 1.6875 -13.796875 C 1.6875 -17.941406 2.910156 -21.34375 5.359375 -24 C 7.804688 -26.664062 10.789062 -28 14.3125 -28 C 17.84375 -28 20.550781 -26.691406 22.4375 -24.078125 L 22.4375 -27.703125 L 30.9375 -27.703125 L 30.9375 0 L 22.4375 0 L 22.4375 -4.015625 C 20.382812 -1.109375 17.632812 0.34375 14.1875 0.34375 C 10.75 0.34375 7.804688 -0.976562 5.359375 -3.625 Z M 5.359375 -3.625 " />
      </g>
    </g>
  </g>
  <g fill="#545454" fill-opacity="1">
    <g transform="translate(186.650599, 193.616156)">
      <g>
        <path
          d="M 12.21875 -27.703125 L 12.21875 -22.546875 C 14.195312 -26.179688 16.84375 -28 20.15625 -28 L 20.15625 -19.359375 L 18.078125 -19.359375 C 16.117188 -19.359375 14.648438 -18.894531 13.671875 -17.96875 C 12.703125 -17.039062 12.21875 -15.421875 12.21875 -13.109375 L 12.21875 0 L 3.71875 0 L 3.71875 -27.703125 Z M 12.21875 -27.703125 " />
      </g>
    </g>
  </g>
  <g fill="#545454" fill-opacity="1">
    <g transform="translate(206.614015, 193.616156)">
      <g>
        <path
          d="M 5.359375 -3.625 C 2.910156 -6.269531 1.6875 -9.660156 1.6875 -13.796875 C 1.6875 -17.941406 2.910156 -21.34375 5.359375 -24 C 7.804688 -26.664062 10.789062 -28 14.3125 -28 C 17.84375 -28 20.550781 -26.691406 22.4375 -24.078125 L 22.4375 -27.703125 L 30.9375 -27.703125 L 30.9375 -0.15625 C 30.9375 3.71875 29.875 6.945312 27.75 9.53125 C 26.695312 10.851562 25.25 11.878906 23.40625 12.609375 C 21.570312 13.335938 19.445312 13.703125 17.03125 13.703125 C 12.789062 13.703125 9.429688 12.84375 6.953125 11.125 C 4.472656 9.40625 3.066406 6.773438 2.734375 3.234375 L 11.078125 3.234375 C 11.867188 5.316406 13.851562 6.359375 17.03125 6.359375 C 18.582031 6.359375 19.867188 5.835938 20.890625 4.796875 C 21.921875 3.753906 22.4375 2.101562 22.4375 -0.15625 L 22.4375 -4.015625 C 20.382812 -1.109375 17.632812 0.34375 14.1875 0.34375 C 10.75 0.34375 7.804688 -0.976562 5.359375 -3.625 Z M 20.59375 -8.78125 C 21.820312 -9.976562 22.4375 -11.664062 22.4375 -13.84375 C 22.4375 -16.03125 21.820312 -17.710938 20.59375 -18.890625 C 19.375 -20.066406 17.96875 -20.65625 16.375 -20.65625 C 14.789062 -20.65625 13.382812 -20.054688 12.15625 -18.859375 C 10.9375 -17.671875 10.328125 -15.984375 10.328125 -13.796875 C 10.328125 -11.617188 10.9375 -9.941406 12.15625 -8.765625 C 13.382812 -7.585938 14.789062 -7 16.375 -7 C 17.96875 -7 19.375 -7.59375 20.59375 -8.78125 Z M 20.59375 -8.78125 " />
      </g>
    </g>
  </g>
  <g fill="#545454" fill-opacity="1">
    <g transform="translate(240.184434, 193.616156)">
      <g>
        <path
          d="M 15.5 0.34375 C 11.457031 0.34375 8.144531 -0.953125 5.5625 -3.546875 C 2.976562 -6.148438 1.6875 -9.601562 1.6875 -13.90625 C 1.6875 -18.207031 2.96875 -21.628906 5.53125 -24.171875 C 8.101562 -26.722656 11.421875 -28 15.484375 -28 C 19.554688 -28 22.929688 -26.738281 25.609375 -24.21875 C 28.296875 -21.707031 29.640625 -18.21875 29.640625 -13.75 C 29.640625 -12.789062 29.578125 -11.898438 29.453125 -11.078125 L 10.375 -11.078125 C 10.539062 -9.847656 11.085938 -8.84375 12.015625 -8.0625 C 12.941406 -7.289062 13.941406 -6.90625 15.015625 -6.90625 C 16.097656 -6.90625 16.898438 -7.007812 17.421875 -7.21875 C 17.953125 -7.4375 18.34375 -7.648438 18.59375 -7.859375 C 18.84375 -8.078125 19.164062 -8.4375 19.5625 -8.9375 L 28.75 -8.9375 C 27.957031 -6.15625 26.367188 -3.910156 23.984375 -2.203125 C 21.597656 -0.503906 18.769531 0.34375 15.5 0.34375 Z M 20.8125 -16.390625 C 20.675781 -17.679688 20.109375 -18.726562 19.109375 -19.53125 C 18.117188 -20.34375 16.945312 -20.75 15.59375 -20.75 C 14.238281 -20.75 13.097656 -20.34375 12.171875 -19.53125 C 11.242188 -18.726562 10.660156 -17.679688 10.421875 -16.390625 Z M 20.8125 -16.390625 " />
      </g>
    </g>
  </g>
  <g fill="#545454" fill-opacity="1">
    <g transform="translate(270.477255, 193.616156)">
      <g>
        <path
          d="M 15.5 -7.203125 L 18.515625 -7.203125 L 18.515625 0 L 14.203125 0 C 11.085938 0 8.675781 -0.6875 6.96875 -2.0625 C 5.269531 -3.4375 4.421875 -5.796875 4.421875 -9.140625 L 4.421875 -20.65625 L 1.84375 -20.65625 L 1.84375 -27.703125 L 4.421875 -27.703125 L 4.421875 -34.46875 L 12.90625 -34.46875 L 12.90625 -27.703125 L 18.46875 -27.703125 L 18.46875 -20.65625 L 12.90625 -20.65625 L 12.90625 -9.140625 C 12.90625 -7.847656 13.769531 -7.203125 15.5 -7.203125 Z M 15.5 -7.203125 " />
      </g>
    </g>
  </g>
  <g fill="#545454" fill-opacity="1">
    <g transform="translate(289.993724, 193.616156)">
      <g>
        <path d="M 3.71875 0 L 3.71875 -36.75 L 12.21875 -36.75 L 12.21875 0 Z M 3.71875 0 " />
      </g>
    </g>
  </g>
  <g fill="#545454" fill-opacity="1">
    <g transform="translate(304.842109, 193.616156)">
      <g>
        <path
          d="M 10.96875 -0.546875 L 0.203125 -27.703125 L 9.828125 -27.703125 L 15.984375 -9.578125 L 22.75 -27.703125 L 31.625 -27.703125 L 13.953125 13.203125 L 5.0625 13.203125 Z M 10.96875 -0.546875 " />
      </g>
    </g>
  </g>
  <g fill="#545454" fill-opacity="1">
    <g transform="translate(127.044824, 221.080131)">
      <g>
        <path
          d="M 4.609375 -10.1875 C 5.765625 -10.1875 6.65625 -9.898438 7.28125 -9.328125 C 7.90625 -8.753906 8.21875 -8.039062 8.21875 -7.1875 C 8.21875 -6.332031 7.921875 -5.609375 7.328125 -5.015625 C 6.742188 -4.429688 5.835938 -4.140625 4.609375 -4.140625 L 2.765625 -4.140625 L 2.765625 0 L 1.09375 0 L 1.09375 -10.1875 Z M 2.765625 -5.4375 L 4.609375 -5.4375 C 5.242188 -5.4375 5.71875 -5.585938 6.03125 -5.890625 C 6.34375 -6.191406 6.5 -6.613281 6.5 -7.15625 C 6.5 -7.695312 6.34375 -8.117188 6.03125 -8.421875 C 5.71875 -8.722656 5.242188 -8.875 4.609375 -8.875 L 2.765625 -8.875 Z M 2.765625 -5.4375 " />
      </g>
    </g>
  </g>
  <g fill="#545454" fill-opacity="1">
    <g transform="translate(137.922096, 221.080131)">
      <g>
        <path
          d="M 2.765625 -4.140625 L 2.765625 0 L 1.09375 0 L 1.09375 -10.1875 L 4.609375 -10.1875 C 5.765625 -10.1875 6.65625 -9.898438 7.28125 -9.328125 C 7.90625 -8.753906 8.21875 -8.03125 8.21875 -7.15625 C 8.21875 -6.46875 8.007812 -5.847656 7.59375 -5.296875 C 7.175781 -4.753906 6.539062 -4.398438 5.6875 -4.234375 L 8.390625 0 L 6.34375 0 L 3.796875 -4.140625 Z M 2.765625 -8.875 L 2.765625 -5.4375 L 4.609375 -5.4375 C 5.242188 -5.4375 5.71875 -5.585938 6.03125 -5.890625 C 6.34375 -6.191406 6.5 -6.613281 6.5 -7.15625 C 6.5 -7.695312 6.34375 -8.117188 6.03125 -8.421875 C 5.71875 -8.722656 5.242188 -8.875 4.609375 -8.875 Z M 2.765625 -8.875 " />
      </g>
    </g>
  </g>
  <g fill="#545454" fill-opacity="1">
    <g transform="translate(149.341694, 221.080131)">
      <g>
        <path
          d="M 6.734375 -10.203125 L 6.734375 -8.890625 L 2.765625 -8.890625 L 2.765625 -5.796875 L 6.28125 -5.796875 L 6.28125 -4.515625 L 2.765625 -4.515625 L 2.765625 -1.296875 L 6.734375 -1.296875 L 6.734375 0 L 1.09375 0 L 1.09375 -10.203125 Z M 6.734375 -10.203125 " />
      </g>
    </g>
  </g>
  <g fill="#545454" fill-opacity="1">
    <g transform="translate(159.178295, 221.080131)">
      <g>
        <path
          d="M 5.75 0.09375 C 4.289062 0.09375 3.054688 -0.394531 2.046875 -1.375 C 1.046875 -2.351562 0.546875 -3.597656 0.546875 -5.109375 C 0.546875 -6.617188 1.046875 -7.863281 2.046875 -8.84375 C 3.054688 -9.820312 4.289062 -10.3125 5.75 -10.3125 C 6.832031 -10.3125 7.796875 -10.046875 8.640625 -9.515625 C 9.484375 -8.984375 10.097656 -8.226562 10.484375 -7.25 L 8.46875 -7.25 C 7.925781 -8.28125 7.019531 -8.796875 5.75 -8.796875 C 4.71875 -8.796875 3.875 -8.457031 3.21875 -7.78125 C 2.570312 -7.101562 2.25 -6.207031 2.25 -5.09375 C 2.25 -3.988281 2.570312 -3.097656 3.21875 -2.421875 C 3.875 -1.753906 4.71875 -1.421875 5.75 -1.421875 C 7.019531 -1.421875 7.925781 -1.929688 8.46875 -2.953125 L 10.484375 -2.953125 C 10.097656 -1.984375 9.484375 -1.234375 8.640625 -0.703125 C 7.796875 -0.171875 6.832031 0.09375 5.75 0.09375 Z M 5.75 0.09375 " />
      </g>
    </g>
  </g>
  <g fill="#545454" fill-opacity="1">
    <g transform="translate(172.664594, 221.080131)">
      <g>
        <path d="M 1.09375 0 L 1.09375 -10.1875 L 2.765625 -10.1875 L 2.765625 0 Z M 1.09375 0 " />
      </g>
    </g>
  </g>
  <g fill="#545454" fill-opacity="1">
    <g transform="translate(178.690249, 221.080131)">
      <g>
        <path
          d="M 4.265625 -8.953125 C 3.765625 -8.953125 3.359375 -8.820312 3.046875 -8.5625 C 2.734375 -8.3125 2.578125 -7.941406 2.578125 -7.453125 C 2.578125 -6.972656 2.757812 -6.609375 3.125 -6.359375 C 3.5 -6.109375 3.953125 -5.921875 4.484375 -5.796875 C 5.015625 -5.679688 5.539062 -5.546875 6.0625 -5.390625 C 6.59375 -5.242188 7.039062 -4.960938 7.40625 -4.546875 C 7.78125 -4.140625 7.96875 -3.5625 7.96875 -2.8125 C 7.96875 -2.0625 7.648438 -1.382812 7.015625 -0.78125 C 6.378906 -0.1875 5.53125 0.109375 4.46875 0.109375 C 3.40625 0.109375 2.539062 -0.140625 1.875 -0.640625 C 1.207031 -1.140625 0.875 -1.832031 0.875 -2.71875 L 2.671875 -2.71875 C 2.703125 -2.257812 2.863281 -1.898438 3.15625 -1.640625 C 3.457031 -1.378906 3.890625 -1.25 4.453125 -1.25 C 5.023438 -1.25 5.472656 -1.394531 5.796875 -1.6875 C 6.117188 -1.976562 6.28125 -2.320312 6.28125 -2.71875 C 6.28125 -3.125 6.179688 -3.4375 5.984375 -3.65625 C 5.785156 -3.882812 5.523438 -4.054688 5.203125 -4.171875 C 4.890625 -4.285156 4.539062 -4.382812 4.15625 -4.46875 C 3.78125 -4.5625 3.398438 -4.664062 3.015625 -4.78125 C 2.628906 -4.894531 2.273438 -5.046875 1.953125 -5.234375 C 1.640625 -5.421875 1.378906 -5.691406 1.171875 -6.046875 C 0.972656 -6.398438 0.875 -6.835938 0.875 -7.359375 C 0.875 -8.242188 1.191406 -8.957031 1.828125 -9.5 C 2.472656 -10.039062 3.304688 -10.3125 4.328125 -10.3125 C 5.347656 -10.3125 6.160156 -10.078125 6.765625 -9.609375 C 7.378906 -9.140625 7.722656 -8.460938 7.796875 -7.578125 L 5.953125 -7.578125 C 5.910156 -7.960938 5.742188 -8.285156 5.453125 -8.546875 C 5.160156 -8.816406 4.765625 -8.953125 4.265625 -8.953125 Z M 4.265625 -8.953125 " />
      </g>
    </g>
  </g>
  <g fill="#545454" fill-opacity="1">
    <g transform="translate(189.699444, 221.080131)">
      <g>
        <path d="M 1.09375 0 L 1.09375 -10.1875 L 2.765625 -10.1875 L 2.765625 0 Z M 1.09375 0 " />
      </g>
    </g>
  </g>
  <g fill="#545454" fill-opacity="1">
    <g transform="translate(195.725099, 221.080131)">
      <g>
        <path
          d="M 5.734375 -1.40625 C 6.765625 -1.40625 7.601562 -1.742188 8.25 -2.421875 C 8.90625 -3.097656 9.234375 -3.988281 9.234375 -5.09375 C 9.234375 -6.207031 8.90625 -7.101562 8.25 -7.78125 C 7.601562 -8.457031 6.765625 -8.796875 5.734375 -8.796875 C 4.710938 -8.796875 3.875 -8.457031 3.21875 -7.78125 C 2.570312 -7.101562 2.25 -6.207031 2.25 -5.09375 C 2.25 -3.988281 2.570312 -3.097656 3.21875 -2.421875 C 3.875 -1.742188 4.710938 -1.40625 5.734375 -1.40625 Z M 5.75 0.109375 C 4.289062 0.109375 3.054688 -0.378906 2.046875 -1.359375 C 1.046875 -2.347656 0.546875 -3.597656 0.546875 -5.109375 C 0.546875 -6.617188 1.046875 -7.863281 2.046875 -8.84375 C 3.054688 -9.820312 4.289062 -10.3125 5.75 -10.3125 C 7.207031 -10.3125 8.4375 -9.820312 9.4375 -8.84375 C 10.445312 -7.863281 10.953125 -6.617188 10.953125 -5.109375 C 10.953125 -3.597656 10.445312 -2.347656 9.4375 -1.359375 C 8.4375 -0.378906 7.207031 0.109375 5.75 0.109375 Z M 5.75 0.109375 " />
      </g>
    </g>
  </g>
  <g fill="#545454" fill-opacity="1">
    <g transform="translate(209.372628, 221.080131)">
      <g>
        <path
          d="M 7.796875 -10.203125 L 9.46875 -10.203125 L 9.46875 0 L 7.796875 0 L 2.765625 -7.609375 L 2.765625 0 L 1.09375 0 L 1.09375 -10.203125 L 2.765625 -10.203125 L 7.796875 -2.609375 Z M 7.796875 -10.203125 " />
      </g>
    </g>
  </g>
  <g fill="#545454" fill-opacity="1">
    <g transform="translate(222.096734, 221.080131)">
      <g />
    </g>
  </g>
  <g fill="#545454" fill-opacity="1">
    <g transform="translate(228.650069, 221.080131)">
      <g>
        <path d="M 1.09375 0 L 1.09375 -10.1875 L 2.765625 -10.1875 L 2.765625 0 Z M 1.09375 0 " />
      </g>
    </g>
  </g>
  <g fill="#545454" fill-opacity="1">
    <g transform="translate(234.67573, 221.080131)">
      <g>
        <path
          d="M 7.796875 -10.203125 L 9.46875 -10.203125 L 9.46875 0 L 7.796875 0 L 2.765625 -7.609375 L 2.765625 0 L 1.09375 0 L 1.09375 -10.203125 L 2.765625 -10.203125 L 7.796875 -2.609375 Z M 7.796875 -10.203125 " />
      </g>
    </g>
  </g>
  <g fill="#545454" fill-opacity="1">
    <g transform="translate(247.399842, 221.080131)">
      <g />
    </g>
  </g>
  <g fill="#545454" fill-opacity="1">
    <g transform="translate(253.953177, 221.080131)">
      <g>
        <path
          d="M 4.609375 -10.1875 C 5.765625 -10.1875 6.65625 -9.898438 7.28125 -9.328125 C 7.90625 -8.753906 8.21875 -8.039062 8.21875 -7.1875 C 8.21875 -6.332031 7.921875 -5.609375 7.328125 -5.015625 C 6.742188 -4.429688 5.835938 -4.140625 4.609375 -4.140625 L 2.765625 -4.140625 L 2.765625 0 L 1.09375 0 L 1.09375 -10.1875 Z M 2.765625 -5.4375 L 4.609375 -5.4375 C 5.242188 -5.4375 5.71875 -5.585938 6.03125 -5.890625 C 6.34375 -6.191406 6.5 -6.613281 6.5 -7.15625 C 6.5 -7.695312 6.34375 -8.117188 6.03125 -8.421875 C 5.71875 -8.722656 5.242188 -8.875 4.609375 -8.875 L 2.765625 -8.875 Z M 2.765625 -5.4375 " />
      </g>
    </g>
  </g>
  <g fill="#545454" fill-opacity="1">
    <g transform="translate(264.830453, 221.080131)">
      <g>
        <path
          d="M 2.765625 -4.140625 L 2.765625 0 L 1.09375 0 L 1.09375 -10.1875 L 4.609375 -10.1875 C 5.765625 -10.1875 6.65625 -9.898438 7.28125 -9.328125 C 7.90625 -8.753906 8.21875 -8.03125 8.21875 -7.15625 C 8.21875 -6.46875 8.007812 -5.847656 7.59375 -5.296875 C 7.175781 -4.753906 6.539062 -4.398438 5.6875 -4.234375 L 8.390625 0 L 6.34375 0 L 3.796875 -4.140625 Z M 2.765625 -8.875 L 2.765625 -5.4375 L 4.609375 -5.4375 C 5.242188 -5.4375 5.71875 -5.585938 6.03125 -5.890625 C 6.34375 -6.191406 6.5 -6.613281 6.5 -7.15625 C 6.5 -7.695312 6.34375 -8.117188 6.03125 -8.421875 C 5.71875 -8.722656 5.242188 -8.875 4.609375 -8.875 Z M 2.765625 -8.875 " />
      </g>
    </g>
  </g>
  <g fill="#545454" fill-opacity="1">
    <g transform="translate(276.250056, 221.080131)">
      <g>
        <path
          d="M 5.734375 -1.40625 C 6.765625 -1.40625 7.601562 -1.742188 8.25 -2.421875 C 8.90625 -3.097656 9.234375 -3.988281 9.234375 -5.09375 C 9.234375 -6.207031 8.90625 -7.101562 8.25 -7.78125 C 7.601562 -8.457031 6.765625 -8.796875 5.734375 -8.796875 C 4.710938 -8.796875 3.875 -8.457031 3.21875 -7.78125 C 2.570312 -7.101562 2.25 -6.207031 2.25 -5.09375 C 2.25 -3.988281 2.570312 -3.097656 3.21875 -2.421875 C 3.875 -1.742188 4.710938 -1.40625 5.734375 -1.40625 Z M 5.75 0.109375 C 4.289062 0.109375 3.054688 -0.378906 2.046875 -1.359375 C 1.046875 -2.347656 0.546875 -3.597656 0.546875 -5.109375 C 0.546875 -6.617188 1.046875 -7.863281 2.046875 -8.84375 C 3.054688 -9.820312 4.289062 -10.3125 5.75 -10.3125 C 7.207031 -10.3125 8.4375 -9.820312 9.4375 -8.84375 C 10.445312 -7.863281 10.953125 -6.617188 10.953125 -5.109375 C 10.953125 -3.597656 10.445312 -2.347656 9.4375 -1.359375 C 8.4375 -0.378906 7.207031 0.109375 5.75 0.109375 Z M 5.75 0.109375 " />
      </g>
    </g>
  </g>
  <g fill="#545454" fill-opacity="1">
    <g transform="translate(289.897591, 221.080131)">
      <g>
        <path
          d="M 11.828125 -10.1875 L 11.828125 0 L 10.15625 0 L 10.15625 -6.96875 L 7.046875 0 L 5.890625 0 L 2.765625 -6.96875 L 2.765625 0 L 1.09375 0 L 1.09375 -10.1875 L 2.90625 -10.1875 L 6.484375 -2.203125 L 10.046875 -10.1875 Z M 11.828125 -10.1875 " />
      </g>
    </g>
  </g>
  <g fill="#545454" fill-opacity="1">
    <g transform="translate(304.98156, 221.080131)">
      <g>
        <path
          d="M 5.734375 -1.40625 C 6.765625 -1.40625 7.601562 -1.742188 8.25 -2.421875 C 8.90625 -3.097656 9.234375 -3.988281 9.234375 -5.09375 C 9.234375 -6.207031 8.90625 -7.101562 8.25 -7.78125 C 7.601562 -8.457031 6.765625 -8.796875 5.734375 -8.796875 C 4.710938 -8.796875 3.875 -8.457031 3.21875 -7.78125 C 2.570312 -7.101562 2.25 -6.207031 2.25 -5.09375 C 2.25 -3.988281 2.570312 -3.097656 3.21875 -2.421875 C 3.875 -1.742188 4.710938 -1.40625 5.734375 -1.40625 Z M 5.75 0.109375 C 4.289062 0.109375 3.054688 -0.378906 2.046875 -1.359375 C 1.046875 -2.347656 0.546875 -3.597656 0.546875 -5.109375 C 0.546875 -6.617188 1.046875 -7.863281 2.046875 -8.84375 C 3.054688 -9.820312 4.289062 -10.3125 5.75 -10.3125 C 7.207031 -10.3125 8.4375 -9.820312 9.4375 -8.84375 C 10.445312 -7.863281 10.953125 -6.617188 10.953125 -5.109375 C 10.953125 -3.597656 10.445312 -2.347656 9.4375 -1.359375 C 8.4375 -0.378906 7.207031 0.109375 5.75 0.109375 Z M 5.75 0.109375 " />
      </g>
    </g>
  </g>
  <g fill="#545454" fill-opacity="1">
    <g transform="translate(318.629095, 221.080131)">
      <g>
        <path
          d="M 0.578125 -8.875 L 0.578125 -10.1875 L 7.6875 -10.1875 L 7.6875 -8.875 L 4.96875 -8.875 L 4.96875 0 L 3.296875 0 L 3.296875 -8.875 Z M 0.578125 -8.875 " />
      </g>
    </g>
  </g>
  <g fill="#545454" fill-opacity="1">
    <g transform="translate(329.051986, 221.080131)">
      <g>
        <path d="M 1.09375 0 L 1.09375 -10.1875 L 2.765625 -10.1875 L 2.765625 0 Z M 1.09375 0 " />
      </g>
    </g>
  </g>
  <g fill="#545454" fill-opacity="1">
    <g transform="translate(335.077635, 221.080131)">
      <g>
        <path
          d="M 5.734375 -1.40625 C 6.765625 -1.40625 7.601562 -1.742188 8.25 -2.421875 C 8.90625 -3.097656 9.234375 -3.988281 9.234375 -5.09375 C 9.234375 -6.207031 8.90625 -7.101562 8.25 -7.78125 C 7.601562 -8.457031 6.765625 -8.796875 5.734375 -8.796875 C 4.710938 -8.796875 3.875 -8.457031 3.21875 -7.78125 C 2.570312 -7.101562 2.25 -6.207031 2.25 -5.09375 C 2.25 -3.988281 2.570312 -3.097656 3.21875 -2.421875 C 3.875 -1.742188 4.710938 -1.40625 5.734375 -1.40625 Z M 5.75 0.109375 C 4.289062 0.109375 3.054688 -0.378906 2.046875 -1.359375 C 1.046875 -2.347656 0.546875 -3.597656 0.546875 -5.109375 C 0.546875 -6.617188 1.046875 -7.863281 2.046875 -8.84375 C 3.054688 -9.820312 4.289062 -10.3125 5.75 -10.3125 C 7.207031 -10.3125 8.4375 -9.820312 9.4375 -8.84375 C 10.445312 -7.863281 10.953125 -6.617188 10.953125 -5.109375 C 10.953125 -3.597656 10.445312 -2.347656 9.4375 -1.359375 C 8.4375 -0.378906 7.207031 0.109375 5.75 0.109375 Z M 5.75 0.109375 " />
      </g>
    </g>
  </g>
  <g fill="#545454" fill-opacity="1">
    <g transform="translate(348.725171, 221.080131)">
      <g>
        <path
          d="M 7.796875 -10.203125 L 9.46875 -10.203125 L 9.46875 0 L 7.796875 0 L 2.765625 -7.609375 L 2.765625 0 L 1.09375 0 L 1.09375 -10.203125 L 2.765625 -10.203125 L 7.796875 -2.609375 Z M 7.796875 -10.203125 " />
      </g>
    </g>
  </g>
</svg>
