<svg xmlns="http://www.w3.org/2000/svg" xmlns:xlink="http://www.w3.org/1999/xlink" width="500" zoomAndPan="magnify"
  viewBox="0 0 375 374.999991" height="500" preserveAspectRatio="xMidYMid meet" version="1.0">
  <defs>
    <clipPath id="9bf72aa56d">
      <path d="M 9.46875 79.1875 L 366 79.1875 L 366 280.644531 L 9.46875 280.644531 Z M 9.46875 79.1875 "
        clip-rule="nonzero" />
    </clipPath>
    <clipPath id="7ff368335b">
      <path
        d="M 176.113281 105.378906 L 234.1875 105.378906 L 234.1875 163.453125 L 176.113281 163.453125 Z M 176.113281 105.378906 "
        clip-rule="nonzero" />
    </clipPath>
    <clipPath id="d1d9b3d412">
      <path
        d="M 205.148438 105.378906 C 189.113281 105.378906 176.113281 118.378906 176.113281 134.417969 C 176.113281 150.453125 189.113281 163.453125 205.148438 163.453125 C 221.1875 163.453125 234.1875 150.453125 234.1875 134.417969 C 234.1875 118.378906 221.1875 105.378906 205.148438 105.378906 Z M 205.148438 105.378906 "
        clip-rule="nonzero" />
    </clipPath>
    <clipPath id="1216da0d84">
      <path
        d="M 97.539062 237.738281 L 155.617188 237.738281 L 155.617188 295.8125 L 97.539062 295.8125 Z M 97.539062 237.738281 "
        clip-rule="nonzero" />
    </clipPath>
    <clipPath id="086b8388a7">
      <path
        d="M 126.578125 237.738281 C 110.539062 237.738281 97.539062 250.738281 97.539062 266.773438 C 97.539062 282.8125 110.539062 295.8125 126.578125 295.8125 C 142.613281 295.8125 155.617188 282.8125 155.617188 266.773438 C 155.617188 250.738281 142.613281 237.738281 126.578125 237.738281 Z M 126.578125 237.738281 "
        clip-rule="nonzero" />
    </clipPath>
    <clipPath id="b1eaeed6cd">
      <path
        d="M 254.683594 237.738281 L 312.761719 237.738281 L 312.761719 295.8125 L 254.683594 295.8125 Z M 254.683594 237.738281 "
        clip-rule="nonzero" />
    </clipPath>
    <clipPath id="ddf49621be">
      <path
        d="M 283.722656 237.738281 C 267.6875 237.738281 254.683594 250.738281 254.683594 266.773438 C 254.683594 282.8125 267.6875 295.8125 283.722656 295.8125 C 299.761719 295.8125 312.761719 282.8125 312.761719 266.773438 C 312.761719 250.738281 299.761719 237.738281 283.722656 237.738281 Z M 283.722656 237.738281 "
        clip-rule="nonzero" />
    </clipPath>
  </defs>
  <g clip-path="url(#9bf72aa56d)">
    <path fill="#00a1ff"
      d="M 249.957031 79.1875 L 288.621094 117.804688 L 206.65625 199.9375 L 129.328125 122.707031 L 9.859375 242.027344 L 48.523438 280.644531 L 129.328125 199.9375 L 206.65625 277.167969 L 327.28125 156.417969 L 365.945312 195.035156 L 365.945312 79.1875 Z M 249.957031 79.1875 "
      fill-opacity="1" fill-rule="nonzero" />
  </g>
  <g clip-path="url(#7ff368335b)">
    <g clip-path="url(#d1d9b3d412)">
      <path fill="#ffbd59"
        d="M 176.113281 105.378906 L 234.1875 105.378906 L 234.1875 163.453125 L 176.113281 163.453125 Z M 176.113281 105.378906 "
        fill-opacity="1" fill-rule="nonzero" />
    </g>
  </g>
  <g clip-path="url(#1216da0d84)">
    <g clip-path="url(#086b8388a7)">
      <path fill="#7ed957"
        d="M 97.539062 237.738281 L 155.617188 237.738281 L 155.617188 295.8125 L 97.539062 295.8125 Z M 97.539062 237.738281 "
        fill-opacity="1" fill-rule="nonzero" />
    </g>
  </g>
  <g clip-path="url(#b1eaeed6cd)">
    <g clip-path="url(#ddf49621be)">
      <path fill="#ff5757"
        d="M 254.683594 237.738281 L 312.761719 237.738281 L 312.761719 295.8125 L 254.683594 295.8125 Z M 254.683594 237.738281 "
        fill-opacity="1" fill-rule="nonzero" />
    </g>
  </g>
</svg>
